<svg xmlns="http://www.w3.org/2000/svg" width="1600" height="900" viewBox="0 0 1600 900" role="img" aria-label="Content model blocks">
  <defs>
    <linearGradient id="bg" x1="0" y1="0" x2="1" y2="1">
      <stop offset="0" stop-color="#22c55e"/>
      <stop offset="0.45" stop-color="#0ea5e9"/>
      <stop offset="1" stop-color="#8b5cf6"/>
    </linearGradient>
    <filter id="shadow" x="-20%" y="-20%" width="140%" height="140%">
      <feGaussianBlur stdDeviation="12" result="b"/>
      <feColorMatrix in="b" type="matrix" values="0 0 0 0 0   0 0 0 0 0   0 0 0 0 0   0 0 0 0.35 0" result="s"/>
      <feMerge>
        <feMergeNode in="s"/>
        <feMergeNode in="SourceGraphic"/>
      </feMerge>
    </filter>
  </defs>

  <rect width="1600" height="900" fill="url(#bg)"/>

  <g opacity="0.14" fill="#ffffff">
    <circle cx="220" cy="220" r="170"/>
    <circle cx="1380" cy="160" r="210"/>
    <circle cx="1420" cy="760" r="260"/>
  </g>

  <g filter="url(#shadow)">
    <rect x="220" y="160" width="1160" height="580" rx="30" fill="rgba(255,255,255,0.12)" stroke="rgba(255,255,255,0.22)" stroke-width="2"/>

    <!-- block pills -->
    <g font-family="ui-sans-serif, system-ui, -apple-system, Segoe UI, Roboto, Arial" font-weight="900" fill="#ffffff">
      <text x="280" y="230" font-size="30" opacity="0.95">Typed blocks</text>
      <text x="280" y="270" font-size="20" opacity="0.9">Render to HTML now, reuse later</text>
    </g>

    <g>
      <rect x="280" y="320" width="520" height="94" rx="22" fill="rgba(255,255,255,0.16)"/>
      <rect x="820" y="320" width="500" height="94" rx="22" fill="rgba(255,255,255,0.16)"/>
      <rect x="280" y="435" width="1040" height="94" rx="22" fill="rgba(255,255,255,0.16)"/>
      <rect x="280" y="550" width="760" height="94" rx="22" fill="rgba(255,255,255,0.16)"/>
      <rect x="1060" y="550" width="260" height="94" rx="22" fill="rgba(255,255,255,0.16)"/>

      <g font-family="ui-sans-serif, system-ui, -apple-system, Segoe UI, Roboto, Arial" font-weight="900" fill="#ffffff" opacity="0.95">
        <text x="320" y="378" font-size="30">p</text>
        <text x="860" y="378" font-size="30">h2 / h3</text>
        <text x="320" y="493" font-size="30">ul / ol</text>
        <text x="320" y="608" font-size="30">code</text>
        <text x="1100" y="608" font-size="30">image</text>
      </g>

      <g font-family="ui-sans-serif, system-ui, -apple-system, Segoe UI, Roboto, Arial" font-weight="700" fill="#ffffff" opacity="0.9">
        <text x="380" y="378" font-size="22">paragraphs</text>
        <text x="1000" y="378" font-size="22">headings</text>
        <text x="460" y="493" font-size="22">lists</text>
        <text x="430" y="608" font-size="22">snippets</text>
        <text x="1230" y="608" font-size="22">media</text>
      </g>
    </g>
  </g>
</svg>
